<svg xmlns="http://www.w3.org/2000/svg" xmlns:xlink="http://www.w3.org/1999/xlink" zoomAndPan="magnify" viewBox="0 0 75 68.999997" preserveAspectRatio="xMidYMid meet" version="1.0"><defs><clipPath id="fd5f8672f7"><path d="M 29.257812 56.550781 L 45.894531 56.550781 L 45.894531 65.851562 L 29.257812 65.851562 Z M 29.257812 56.550781 " clip-rule="nonzero"/></clipPath><clipPath id="523b018a52"><path d="M 27.757812 61.351562 L 46.945312 61.351562 L 46.945312 65.851562 L 27.757812 65.851562 Z M 27.757812 61.351562 " clip-rule="nonzero"/></clipPath><clipPath id="ec070771ad"><path d="M 7.5 10.949219 L 67.5 10.949219 L 67.5 48 L 7.5 48 Z M 7.5 10.949219 " clip-rule="nonzero"/></clipPath><clipPath id="ebd2691645"><path d="M 42.144531 10.949219 L 45.894531 10.949219 L 45.894531 25.800781 L 42.144531 25.800781 Z M 42.144531 10.949219 " clip-rule="nonzero"/></clipPath><clipPath id="af36fc5c7d"><path d="M 7.5 10.949219 L 11.28125 10.949219 L 11.28125 48 L 7.5 48 Z M 7.5 10.949219 " clip-rule="nonzero"/></clipPath><clipPath id="fd9be6771d"><path d="M 42.144531 32.175781 L 45.894531 32.175781 L 45.894531 35.925781 L 42.144531 35.925781 Z M 42.144531 32.175781 " clip-rule="nonzero"/></clipPath><clipPath id="8043f0293d"><path d="M 38.394531 35.925781 L 42.144531 35.925781 L 42.144531 39.675781 L 38.394531 39.675781 Z M 38.394531 35.925781 " clip-rule="nonzero"/></clipPath><clipPath id="2ecd059fa8"><path d="M 45.894531 28.425781 L 49.644531 28.425781 L 49.644531 32.175781 L 45.894531 32.175781 Z M 45.894531 28.425781 " clip-rule="nonzero"/></clipPath><clipPath id="3252fd7a11"><path d="M 25 61 L 51 61 L 51 68.25 L 25 68.25 Z M 25 61 " clip-rule="nonzero"/></clipPath></defs><g clip-path="url(#fd5f8672f7)"><path fill="#283242" d="M 29.257812 56.550781 L 45.894531 56.550781 L 45.894531 65.851562 L 29.257812 65.851562 Z M 29.257812 56.550781 " fill-opacity="1" fill-rule="nonzero"/></g><g clip-path="url(#523b018a52)"><path fill="#283242" d="M 27.757812 61.351562 L 46.953125 61.351562 L 46.953125 65.851562 L 27.757812 65.851562 Z M 27.757812 61.351562 " fill-opacity="1" fill-rule="nonzero"/></g><g clip-path="url(#ec070771ad)"><path fill="#ffffff" d="M 7.5 10.949219 L 67.5625 10.949219 L 67.5625 48 L 7.5 48 Z M 7.5 10.949219 " fill-opacity="1" fill-rule="nonzero"/></g><g clip-path="url(#ebd2691645)"><path fill="#bdbdbc" d="M 42.144531 10.949219 L 45.894531 10.949219 L 45.894531 25.804688 L 42.144531 25.804688 Z M 42.144531 10.949219 " fill-opacity="1" fill-rule="nonzero"/></g><g clip-path="url(#af36fc5c7d)"><path fill="#bdbdbc" d="M 7.5 10.949219 L 11.28125 10.949219 L 11.28125 48.003906 L 7.5 48.003906 Z M 7.5 10.949219 " fill-opacity="1" fill-rule="nonzero"/></g><g clip-path="url(#fd9be6771d)"><path fill="#bdbdbc" d="M 42.144531 32.175781 L 45.894531 32.175781 L 45.894531 35.925781 L 42.144531 35.925781 Z M 42.144531 32.175781 " fill-opacity="1" fill-rule="nonzero"/></g><g clip-path="url(#8043f0293d)"><path fill="#bdbdbc" d="M 38.394531 35.925781 L 42.144531 35.925781 L 42.144531 39.675781 L 38.394531 39.675781 Z M 38.394531 35.925781 " fill-opacity="1" fill-rule="nonzero"/></g><g clip-path="url(#2ecd059fa8)"><path fill="#bdbdbc" d="M 45.894531 28.425781 L 49.644531 28.425781 L 49.644531 32.175781 L 45.894531 32.175781 Z M 45.894531 28.425781 " fill-opacity="1" fill-rule="nonzero"/></g><path fill="#283242" d="M 67.863281 46.878906 L 7.160156 46.878906 L 7.160156 11.183594 L 3.574219 11.183594 L 3.574219 54.027344 L 7.160156 54.027344 L 7.160156 57.613281 L 28.582031 57.613281 L 28.582031 61.175781 L 32.144531 61.175781 L 32.144531 57.613281 L 42.855469 57.613281 L 42.855469 61.175781 L 46.441406 61.175781 L 46.441406 57.613281 L 67.863281 57.613281 L 67.863281 54.027344 L 71.425781 54.027344 L 71.425781 11.183594 L 67.863281 11.183594 Z M 67.863281 46.878906 " fill-opacity="1" fill-rule="nonzero"/><path fill="#283242" d="M 50.003906 7.597656 L 67.863281 7.597656 L 67.863281 11.183594 L 50.003906 11.183594 Z M 50.003906 7.597656 " fill-opacity="1" fill-rule="nonzero"/><g clip-path="url(#3252fd7a11)"><path fill="#283242" d="M 28.582031 64.738281 L 28.582031 61.175781 L 25.019531 61.175781 L 25.019531 68.324219 L 50.003906 68.324219 L 50.003906 61.175781 L 46.441406 61.175781 L 46.441406 64.738281 Z M 28.582031 64.738281 " fill-opacity="1" fill-rule="nonzero"/></g><path fill="#283242" d="M 32.144531 0.472656 L 42.855469 0.472656 L 42.855469 4.035156 L 32.144531 4.035156 Z M 32.144531 0.472656 " fill-opacity="1" fill-rule="nonzero"/><path fill="#283242" d="M 39.292969 39.753906 L 39.292969 36.167969 L 42.855469 36.167969 L 42.855469 32.605469 L 46.441406 32.605469 L 46.441406 29.042969 L 50.003906 29.042969 L 50.003906 25.457031 L 42.855469 25.457031 L 42.855469 7.597656 L 32.144531 7.597656 L 32.144531 25.457031 L 25.019531 25.457031 L 25.019531 29.042969 L 28.582031 29.042969 L 28.582031 32.605469 L 32.144531 32.605469 L 32.144531 36.167969 L 35.730469 36.167969 L 35.730469 39.753906 Z M 39.292969 39.753906 " fill-opacity="1" fill-rule="nonzero"/><path fill="#283242" d="M 7.160156 7.597656 L 25.019531 7.597656 L 25.019531 11.183594 L 7.160156 11.183594 Z M 7.160156 7.597656 " fill-opacity="1" fill-rule="nonzero"/></svg>