<svg xmlns="http://www.w3.org/2000/svg" xmlns:xlink="http://www.w3.org/1999/xlink" width="103" zoomAndPan="magnify" viewBox="0 0 77.25 74.999997" height="100" preserveAspectRatio="xMidYMid meet" version="1.0"><defs><clipPath id="df5d39b5b5"><path d="M 7 40 L 33 40 L 33 66 L 7 66 Z M 7 40 " clip-rule="nonzero"/></clipPath><clipPath id="401820f947"><path d="M 22.421875 40.632812 L 32.878906 51.699219 L 17.753906 65.996094 L 7.292969 54.933594 Z M 22.421875 40.632812 " clip-rule="nonzero"/></clipPath><clipPath id="9da4f65f41"><path d="M 22.421875 40.632812 L 32.878906 51.699219 L 17.792969 65.960938 L 7.332031 54.894531 Z M 22.421875 40.632812 " clip-rule="nonzero"/></clipPath><clipPath id="efb92d8f3b"><path d="M 41 7 L 68 7 L 68 34 L 41 34 Z M 41 7 " clip-rule="nonzero"/></clipPath><clipPath id="949e965ca2"><path d="M 57.398438 7.570312 L 67.859375 18.632812 L 52.082031 33.542969 L 41.625 22.480469 Z M 57.398438 7.570312 " clip-rule="nonzero"/></clipPath><clipPath id="b6bc1540a7"><path d="M 57.398438 7.570312 L 67.859375 18.632812 L 52.101562 33.527344 L 41.640625 22.464844 Z M 57.398438 7.570312 " clip-rule="nonzero"/></clipPath><clipPath id="03b817af71"><path d="M 15 16 L 67 16 L 67 65 L 15 65 Z M 15 16 " clip-rule="nonzero"/></clipPath><clipPath id="3b79a011d5"><path d="M 55.414062 16.214844 L 66.191406 27.613281 L 26.605469 65.035156 L 15.832031 53.636719 Z M 55.414062 16.214844 " clip-rule="nonzero"/></clipPath><clipPath id="8f0f554409"><path d="M 55.414062 16.214844 L 66.191406 27.613281 L 26.628906 65.011719 L 15.855469 53.613281 Z M 55.414062 16.214844 " clip-rule="nonzero"/></clipPath><clipPath id="ce8110ebef"><path d="M 0 38 L 27 38 L 27 67 L 0 67 Z M 0 38 " clip-rule="nonzero"/></clipPath><clipPath id="efbdf99f4d"><path d="M 76.152344 21.816406 L 20.21875 74.691406 L -0.121094 53.179688 L 55.816406 0.304688 Z M 76.152344 21.816406 " clip-rule="nonzero"/></clipPath><clipPath id="0c99631181"><path d="M 93.566406 40.238281 L 37.632812 93.117188 L -15.242188 37.179688 L 40.691406 -15.695312 Z M 93.566406 40.238281 " clip-rule="nonzero"/></clipPath><clipPath id="d6a5aba9a9"><path d="M 15 61 L 21 61 L 21 67 L 15 67 Z M 15 61 " clip-rule="nonzero"/></clipPath><clipPath id="ab85f36c3b"><path d="M 76.152344 21.816406 L 20.21875 74.691406 L -0.121094 53.179688 L 55.816406 0.304688 Z M 76.152344 21.816406 " clip-rule="nonzero"/></clipPath><clipPath id="8c9ccf8291"><path d="M 93.566406 40.238281 L 37.632812 93.117188 L -15.242188 37.179688 L 40.691406 -15.695312 Z M 93.566406 40.238281 " clip-rule="nonzero"/></clipPath><clipPath id="ecc38a7148"><path d="M 20 61 L 26 61 L 26 67 L 20 67 Z M 20 61 " clip-rule="nonzero"/></clipPath><clipPath id="5dbb8be975"><path d="M 76.152344 21.816406 L 20.21875 74.691406 L -0.121094 53.179688 L 55.816406 0.304688 Z M 76.152344 21.816406 " clip-rule="nonzero"/></clipPath><clipPath id="189271b8b8"><path d="M 93.566406 40.238281 L 37.632812 93.117188 L -15.242188 37.179688 L 40.691406 -15.695312 Z M 93.566406 40.238281 " clip-rule="nonzero"/></clipPath><clipPath id="231899a532"><path d="M 26 25 L 48 25 L 48 47 L 26 47 Z M 26 25 " clip-rule="nonzero"/></clipPath><clipPath id="f4a8f4f63d"><path d="M 76.152344 21.816406 L 20.21875 74.691406 L -0.121094 53.179688 L 55.816406 0.304688 Z M 76.152344 21.816406 " clip-rule="nonzero"/></clipPath><clipPath id="a7057b62de"><path d="M 93.566406 40.238281 L 37.632812 93.117188 L -15.242188 37.179688 L 40.691406 -15.695312 Z M 93.566406 40.238281 " clip-rule="nonzero"/></clipPath><clipPath id="2fe458a0d0"><path d="M 39 2 L 69 2 L 69 26 L 39 26 Z M 39 2 " clip-rule="nonzero"/></clipPath><clipPath id="4b02f81363"><path d="M 76.152344 21.816406 L 20.21875 74.691406 L -0.121094 53.179688 L 55.816406 0.304688 Z M 76.152344 21.816406 " clip-rule="nonzero"/></clipPath><clipPath id="24666fa7dd"><path d="M 93.566406 40.238281 L 37.632812 93.117188 L -15.242188 37.179688 L 40.691406 -15.695312 Z M 93.566406 40.238281 " clip-rule="nonzero"/></clipPath><clipPath id="7e9eeac603"><path d="M 25 26 L 68 26 L 68 67 L 25 67 Z M 25 26 " clip-rule="nonzero"/></clipPath><clipPath id="5c232e7e6f"><path d="M 76.152344 21.816406 L 20.21875 74.691406 L -0.121094 53.179688 L 55.816406 0.304688 Z M 76.152344 21.816406 " clip-rule="nonzero"/></clipPath><clipPath id="9cc627675f"><path d="M 93.566406 40.238281 L 37.632812 93.117188 L -15.242188 37.179688 L 40.691406 -15.695312 Z M 93.566406 40.238281 " clip-rule="nonzero"/></clipPath><clipPath id="f40468f696"><path d="M 62 21 L 69 21 L 69 27 L 62 27 Z M 62 21 " clip-rule="nonzero"/></clipPath><clipPath id="4f6306f21d"><path d="M 76.152344 21.816406 L 20.21875 74.691406 L -0.121094 53.179688 L 55.816406 0.304688 Z M 76.152344 21.816406 " clip-rule="nonzero"/></clipPath><clipPath id="811f3b58fb"><path d="M 93.566406 40.238281 L 37.632812 93.117188 L -15.242188 37.179688 L 40.691406 -15.695312 Z M 93.566406 40.238281 " clip-rule="nonzero"/></clipPath><clipPath id="0ceb7ce553"><path d="M 63 16 L 69 16 L 69 22 L 63 22 Z M 63 16 " clip-rule="nonzero"/></clipPath><clipPath id="dc325428d7"><path d="M 76.152344 21.816406 L 20.21875 74.691406 L -0.121094 53.179688 L 55.816406 0.304688 Z M 76.152344 21.816406 " clip-rule="nonzero"/></clipPath><clipPath id="c2f2237c7c"><path d="M 93.566406 40.238281 L 37.632812 93.117188 L -15.242188 37.179688 L 40.691406 -15.695312 Z M 93.566406 40.238281 " clip-rule="nonzero"/></clipPath><clipPath id="fc18ba7bdc"><path d="M 44 11 L 64 11 L 64 29 L 44 29 Z M 44 11 " clip-rule="nonzero"/></clipPath><clipPath id="43d5556af1"><path d="M 60.5625 11.011719 L 63.203125 13.804688 L 47.445312 28.703125 L 44.804688 25.910156 Z M 60.5625 11.011719 " clip-rule="nonzero"/></clipPath><clipPath id="f179a8cc5c"><path d="M 60.5625 11.011719 L 63.203125 13.804688 L 47.445312 28.699219 L 44.804688 25.90625 Z M 60.5625 11.011719 " clip-rule="nonzero"/></clipPath><clipPath id="8b70d2085e"><path d="M 10 43 L 29 43 L 29 62 L 10 62 Z M 10 43 " clip-rule="nonzero"/></clipPath><clipPath id="209dce6bc2"><path d="M 26.210938 43.484375 L 28.851562 46.277344 L 13.09375 61.175781 L 10.453125 58.382812 Z M 26.210938 43.484375 " clip-rule="nonzero"/></clipPath><clipPath id="4b6d79822d"><path d="M 26.210938 43.484375 L 28.851562 46.277344 L 13.09375 61.171875 L 10.453125 58.378906 Z M 26.210938 43.484375 " clip-rule="nonzero"/></clipPath><clipPath id="353fbcc695"><path d="M 28 28 L 51 28 L 51 50 L 28 50 Z M 28 28 " clip-rule="nonzero"/></clipPath><clipPath id="bf4c8951e4"><path d="M 47.230469 28.472656 L 50.085938 31.496094 L 31.488281 49.078125 L 28.632812 46.054688 Z M 47.230469 28.472656 " clip-rule="nonzero"/></clipPath><clipPath id="38c705fdc3"><path d="M 47.230469 28.472656 L 50.085938 31.496094 L 31.492188 49.074219 L 28.636719 46.050781 Z M 47.230469 28.472656 " clip-rule="nonzero"/></clipPath></defs><g clip-path="url(#df5d39b5b5)"><g clip-path="url(#401820f947)"><g clip-path="url(#9da4f65f41)"><path fill="#ffffff" d="M 22.421875 40.632812 L 32.878906 51.699219 L 17.796875 65.957031 L 7.335938 54.890625 Z M 22.421875 40.632812 " fill-opacity="1" fill-rule="nonzero"/></g></g></g><g clip-path="url(#efb92d8f3b)"><g clip-path="url(#949e965ca2)"><g clip-path="url(#b6bc1540a7)"><path fill="#ffffff" d="M 57.398438 7.570312 L 67.859375 18.632812 L 52.082031 33.542969 L 41.625 22.480469 Z M 57.398438 7.570312 " fill-opacity="1" fill-rule="nonzero"/></g></g></g><g clip-path="url(#03b817af71)"><g clip-path="url(#3b79a011d5)"><g clip-path="url(#8f0f554409)"><path fill="#ffffff" d="M 55.414062 16.214844 L 66.191406 27.613281 L 26.652344 64.992188 L 15.875 53.59375 Z M 55.414062 16.214844 " fill-opacity="1" fill-rule="nonzero"/></g></g></g><g clip-path="url(#ce8110ebef)"><g clip-path="url(#efbdf99f4d)"><g clip-path="url(#0c99631181)"><path fill="#283242" d="M 10.167969 58.609375 L 26.140625 43.511719 L 21.125 38.203125 L 18.453125 40.726562 L 15.929688 38.054688 L 2.625 50.632812 L -2.390625 45.324219 L -5.046875 47.832031 L 12.546875 66.445312 L 15.199219 63.9375 Z M 10.167969 58.609375 " fill-opacity="1" fill-rule="nonzero"/></g></g></g><g clip-path="url(#d6a5aba9a9)"><g clip-path="url(#ab85f36c3b)"><g clip-path="url(#8c9ccf8291)"><path fill="#283242" d="M 20.398438 64.082031 L 17.726562 66.605469 L 15.199219 63.9375 L 17.871094 61.410156 Z M 20.398438 64.082031 " fill-opacity="1" fill-rule="nonzero"/></g></g></g><g clip-path="url(#ecc38a7148)"><g clip-path="url(#5dbb8be975)"><g clip-path="url(#189271b8b8)"><path fill="#283242" d="M 25.558594 64.226562 L 22.90625 66.734375 L 20.398438 64.082031 L 23.050781 61.574219 Z M 25.558594 64.226562 " fill-opacity="1" fill-rule="nonzero"/></g></g></g><g clip-path="url(#231899a532)"><g clip-path="url(#f4a8f4f63d)"><g clip-path="url(#a7057b62de)"><path fill="#283242" d="M 47.277344 28.589844 L 28.667969 46.179688 L 26.140625 43.511719 L 44.753906 25.917969 Z M 47.277344 28.589844 " fill-opacity="1" fill-rule="nonzero"/></g></g></g><g clip-path="url(#2fe458a0d0)"><g clip-path="url(#4b02f81363)"><g clip-path="url(#24666fa7dd)"><path fill="#283242" d="M 60.726562 10.816406 L 65.761719 16.140625 L 68.414062 13.632812 L 58.363281 3 L 55.710938 5.507812 L 53.1875 2.835938 L 39.882812 15.414062 L 42.40625 18.085938 L 39.734375 20.609375 L 44.753906 25.917969 Z M 60.726562 10.816406 " fill-opacity="1" fill-rule="nonzero"/></g></g></g><g clip-path="url(#7e9eeac603)"><g clip-path="url(#5c232e7e6f)"><g clip-path="url(#9cc627675f)"><path fill="#283242" d="M 67.980469 29.152344 L 28.066406 66.882812 L 25.558594 64.226562 L 65.46875 26.5 Z M 67.980469 29.152344 " fill-opacity="1" fill-rule="nonzero"/></g></g></g><g clip-path="url(#f40468f696)"><g clip-path="url(#4f6306f21d)"><g clip-path="url(#811f3b58fb)"><path fill="#283242" d="M 68.125 23.992188 L 65.46875 26.5 L 62.960938 23.847656 L 65.617188 21.335938 Z M 68.125 23.992188 " fill-opacity="1" fill-rule="nonzero"/></g></g></g><g clip-path="url(#0ceb7ce553)"><g clip-path="url(#dc325428d7)"><g clip-path="url(#c2f2237c7c)"><path fill="#283242" d="M 68.285156 18.8125 L 65.617188 21.335938 L 63.089844 18.667969 L 65.761719 16.140625 Z M 68.285156 18.8125 " fill-opacity="1" fill-rule="nonzero"/></g></g></g><g clip-path="url(#fc18ba7bdc)"><g clip-path="url(#43d5556af1)"><g clip-path="url(#f179a8cc5c)"><path fill="#bdbdbc" d="M 60.5625 11.011719 L 63.203125 13.804688 L 47.445312 28.703125 L 44.804688 25.910156 Z M 60.5625 11.011719 " fill-opacity="1" fill-rule="nonzero"/></g></g></g><g clip-path="url(#8b70d2085e)"><g clip-path="url(#209dce6bc2)"><g clip-path="url(#4b6d79822d)"><path fill="#bdbdbc" d="M 26.210938 43.484375 L 28.851562 46.277344 L 13.09375 61.175781 L 10.453125 58.382812 Z M 26.210938 43.484375 " fill-opacity="1" fill-rule="nonzero"/></g></g></g><g clip-path="url(#353fbcc695)"><g clip-path="url(#bf4c8951e4)"><g clip-path="url(#38c705fdc3)"><path fill="#bdbdbc" d="M 47.230469 28.472656 L 50.085938 31.496094 L 31.488281 49.078125 L 28.632812 46.054688 Z M 47.230469 28.472656 " fill-opacity="1" fill-rule="nonzero"/></g></g></g></svg>