<svg xmlns="http://www.w3.org/2000/svg" xmlns:xlink="http://www.w3.org/1999/xlink" zoomAndPan="magnify" viewBox="0 0 155.25 158.250002" preserveAspectRatio="xMidYMid meet" version="1.0"><defs><clipPath id="655446aff9"><path d="M 0.09375 6.972656 L 116 6.972656 L 116 127 L 0.09375 127 Z M 0.09375 6.972656 " clip-rule="nonzero"/></clipPath><clipPath id="7852201d63"><path d="M 0.09375 6.972656 L 97 6.972656 L 97 92 L 0.09375 92 Z M 0.09375 6.972656 " clip-rule="nonzero"/></clipPath><clipPath id="4e12789596"><path d="M 0.09375 6.972656 L 118.730469 6.972656 L 118.730469 130.128906 L 0.09375 130.128906 Z M 0.09375 6.972656 " clip-rule="nonzero"/></clipPath><clipPath id="9427ce6377"><path d="M 38.921875 41.9375 L 153.867188 41.9375 L 153.867188 156.882812 L 38.921875 156.882812 Z M 38.921875 41.9375 " clip-rule="nonzero"/></clipPath><clipPath id="2c3a60e40b"><path d="M 79.738281 100.472656 L 111.316406 100.472656 L 111.316406 135.71875 L 79.738281 135.71875 Z M 79.738281 100.472656 " clip-rule="nonzero"/></clipPath><clipPath id="2389fa2b28"><path d="M 74.753906 100.472656 L 81.679688 100.472656 L 81.679688 125.882812 L 74.753906 125.882812 Z M 74.753906 100.472656 " clip-rule="nonzero"/></clipPath><clipPath id="91cbdcebac"><path d="M 0 85.921875 L 7.382812 85.921875 L 7.382812 130.183594 L 0 130.183594 Z M 0 85.921875 " clip-rule="nonzero"/></clipPath><clipPath id="6cf52c877a"><path d="M 72.582031 122.226562 L 81.679688 122.226562 L 81.679688 136.925781 L 72.582031 136.925781 Z M 72.582031 122.226562 " clip-rule="nonzero"/></clipPath><clipPath id="8afd022f10"><path d="M 95.71875 114.996094 L 122.863281 114.996094 L 122.863281 127.125 L 95.71875 127.125 Z M 95.71875 114.996094 " clip-rule="nonzero"/></clipPath><clipPath id="bc3b85069f"><path d="M 95.722656 122.226562 L 107.390625 122.226562 L 107.390625 141.253906 L 95.722656 141.253906 Z M 95.722656 122.226562 " clip-rule="nonzero"/></clipPath><clipPath id="a027f6cfe8"><path d="M 111.316406 104.109375 L 122.808594 104.109375 L 122.808594 120.234375 L 111.316406 120.234375 Z M 111.316406 104.109375 " clip-rule="nonzero"/></clipPath><clipPath id="3439f57825"><path d="M 74.378906 0.0078125 L 118.796875 0.0078125 L 118.796875 6.972656 L 74.378906 6.972656 Z M 74.378906 0.0078125 " clip-rule="nonzero"/></clipPath><clipPath id="b3e805cbf7"><path d="M 74.199219 0.0078125 L 81.589844 0.0078125 L 81.589844 16.917969 L 74.199219 16.917969 Z M 74.199219 0.0078125 " clip-rule="nonzero"/></clipPath><clipPath id="5768ace132"><path d="M 111.578125 0.0078125 L 118.667969 0.0078125 L 118.667969 16.582031 L 111.578125 16.582031 Z M 111.578125 0.0078125 " clip-rule="nonzero"/></clipPath></defs><path fill="#5ce1e6" d="M 115.042969 108.164062 L 97.703125 108.164062 L 115.042969 93.542969 Z M 96.480469 126.726562 L 75.6875 126.726562 L 96.480469 109.195312 Z M 96.480469 126.726562 " fill-opacity="1" fill-rule="nonzero"/><path fill="#5ce1e6" d="M 77.917969 108.164062 L 77.917969 65.433594 L 115.042969 34.132812 L 115.042969 93.800781 L 98.007812 108.164062 L 96.480469 108.164062 L 96.480469 109.453125 L 75.992188 126.726562 L 5.230469 126.726562 L 27.246094 108.164062 Z M 77.917969 108.164062 " fill-opacity="1" fill-rule="nonzero"/><g clip-path="url(#655446aff9)"><path fill="#27c6d9" d="M 3.667969 126.726562 L 3.667969 108.164062 L -14.894531 108.164062 L -14.894531 89.601562 L 22.230469 89.601562 L 22.230469 108.164062 L 33.542969 108.164062 L 11.53125 126.726562 Z M 115.042969 -3.207031 L 115.042969 39.445312 L 77.917969 70.746094 L 77.917969 11.078125 L 94.859375 -3.207031 Z M 115.042969 -3.207031 " fill-opacity="1" fill-rule="nonzero"/></g><g clip-path="url(#7852201d63)"><path fill="#5ce1e6" d="M -14.894531 89.601562 L -13.210938 89.601562 L -14.894531 91.023438 Z M 77.917969 -3.207031 L 96.859375 -3.207031 L 77.917969 12.761719 Z M 77.917969 -3.207031 " fill-opacity="1" fill-rule="nonzero"/></g><g clip-path="url(#4e12789596)"><path fill="#ffffff" d="M -0.0429688 111.875 L -18.605469 111.875 L -18.605469 85.890625 L 25.941406 85.890625 L 25.941406 104.453125 L 74.203125 104.453125 L 74.203125 -6.921875 L 118.753906 -6.921875 L 118.753906 111.875 L 100.191406 111.875 L 100.191406 130.4375 L -0.0429688 130.4375 Z M 92.765625 123.015625 L 92.765625 104.453125 L 111.328125 104.453125 L 111.328125 0.503906 L 81.628906 0.503906 L 81.628906 111.875 L 18.519531 111.875 L 18.519531 93.3125 L -11.179688 93.3125 L -11.179688 104.453125 L 7.382812 104.453125 L 7.382812 123.015625 Z M 92.765625 123.015625 " fill-opacity="1" fill-rule="nonzero"/></g><path fill="#27c6d9" d="M 150.953125 122.851562 L 135.394531 122.851562 L 135.394531 138.410156 L 119.835938 138.410156 L 119.835938 153.96875 L 86.0625 153.96875 L 150.953125 99.25 Z M 135.394531 153.96875 L 135.394531 138.410156 L 150.953125 138.410156 L 150.953125 149.269531 L 145.378906 153.96875 Z M 135.394531 153.96875 " fill-opacity="1" fill-rule="nonzero"/><path fill="#5ce1e6" d="M 150.953125 60.609375 L 150.953125 102.097656 L 89.4375 153.96875 L 57.59375 153.96875 L 57.59375 138.410156 L 48.574219 138.410156 L 73.15625 117.683594 L 73.15625 138.410156 L 104.273438 138.410156 L 104.273438 122.851562 L 88.714844 122.851562 L 88.714844 107.289062 L 119.835938 107.289062 L 119.835938 78.320312 L 140.839844 60.609375 Z M 150.953125 60.609375 " fill-opacity="1" fill-rule="nonzero"/><path fill="#5ce1e6" d="M 42.035156 138.410156 L 42.035156 98.359375 L 73.15625 72.117188 L 73.15625 122.136719 L 53.855469 138.410156 Z M 135.394531 45.050781 L 135.394531 60.609375 L 146.117188 60.609375 L 119.835938 82.773438 L 119.835938 60.609375 L 86.800781 60.609375 L 105.253906 45.050781 Z M 88.714844 107.289062 L 90.761719 107.289062 L 88.714844 109.015625 Z M 88.714844 107.289062 " fill-opacity="1" fill-rule="nonzero"/><path fill="#27c6d9" d="M 42.035156 60.609375 L 57.59375 60.609375 L 57.59375 45.050781 L 106.925781 45.050781 L 88.476562 60.609375 L 73.15625 60.609375 L 73.15625 73.527344 L 42.035156 99.769531 Z M 42.035156 60.609375 " fill-opacity="1" fill-rule="nonzero"/><g clip-path="url(#9427ce6377)"><path fill="#ffffff" d="M 154.066406 125.960938 L 138.507812 125.960938 L 138.507812 135.296875 L 154.066406 135.296875 L 154.066406 157.082031 L 132.28125 157.082031 L 132.28125 141.523438 L 122.945312 141.523438 L 122.945312 157.082031 L 54.484375 157.082031 L 54.484375 141.523438 L 38.921875 141.523438 L 38.921875 57.5 L 54.484375 57.5 L 54.484375 41.9375 L 138.507812 41.9375 L 138.507812 57.5 L 154.066406 57.5 Z M 132.28125 63.722656 L 132.28125 48.164062 L 60.707031 48.164062 L 60.707031 63.722656 L 45.148438 63.722656 L 45.148438 135.296875 L 60.707031 135.296875 L 60.707031 150.859375 L 116.722656 150.859375 L 116.722656 135.296875 L 132.28125 135.296875 L 132.28125 119.738281 L 147.84375 119.738281 L 147.84375 63.722656 Z M 91.828125 110.402344 L 91.828125 119.738281 L 107.386719 119.738281 L 107.386719 141.523438 L 70.042969 141.523438 L 70.042969 57.5 L 122.945312 57.5 L 122.945312 110.402344 Z M 116.722656 63.722656 L 76.265625 63.722656 L 76.265625 135.296875 L 101.164062 135.296875 L 101.164062 125.960938 L 85.601562 125.960938 L 85.601562 104.179688 L 116.722656 104.179688 Z M 147.84375 150.859375 L 147.84375 141.523438 L 138.507812 141.523438 L 138.507812 150.859375 Z M 147.84375 150.859375 " fill-opacity="1" fill-rule="nonzero"/></g><g clip-path="url(#2c3a60e40b)"><path fill="#5ce1e6" d="M 79.738281 100.472656 L 111.316406 100.472656 L 111.316406 135.75 L 79.738281 135.75 Z M 79.738281 100.472656 " fill-opacity="1" fill-rule="nonzero"/></g><g clip-path="url(#2389fa2b28)"><path fill="#ffffff" d="M 74.753906 100.472656 L 81.679688 100.472656 L 81.679688 125.886719 L 74.753906 125.886719 Z M 74.753906 100.472656 " fill-opacity="1" fill-rule="nonzero"/></g><g clip-path="url(#91cbdcebac)"><path fill="#ffffff" d="M 7.382812 130.183594 L -0.0078125 130.183594 L -0.0078125 85.933594 L 7.382812 85.933594 Z M 7.382812 130.183594 " fill-opacity="1" fill-rule="nonzero"/></g><g clip-path="url(#6cf52c877a)"><path fill="#ffffff" d="M 72.582031 122.226562 L 81.679688 122.226562 L 81.679688 136.9375 L 72.582031 136.9375 Z M 72.582031 122.226562 " fill-opacity="1" fill-rule="nonzero"/></g><g clip-path="url(#8afd022f10)"><path fill="#ffffff" d="M 122.863281 114.996094 L 122.863281 127.125 L 95.707031 127.125 L 95.707031 114.996094 Z M 122.863281 114.996094 " fill-opacity="1" fill-rule="nonzero"/></g><g clip-path="url(#bc3b85069f)"><path fill="#ffffff" d="M 95.722656 122.226562 L 107.390625 122.226562 L 107.390625 141.273438 L 95.722656 141.273438 Z M 95.722656 122.226562 " fill-opacity="1" fill-rule="nonzero"/></g><g clip-path="url(#a027f6cfe8)"><path fill="#ffffff" d="M 111.316406 104.109375 L 122.808594 104.109375 L 122.808594 120.230469 L 111.316406 120.230469 Z M 111.316406 104.109375 " fill-opacity="1" fill-rule="nonzero"/></g><g clip-path="url(#3439f57825)"><path fill="#ffffff" d="M 74.378906 0.0078125 L 118.792969 0.0078125 L 118.792969 6.972656 L 74.378906 6.972656 Z M 74.378906 0.0078125 " fill-opacity="1" fill-rule="nonzero"/></g><g clip-path="url(#b3e805cbf7)"><path fill="#ffffff" d="M 81.589844 16.917969 L 74.199219 16.917969 L 74.199219 0.00390625 L 81.589844 0.00390625 Z M 81.589844 16.917969 " fill-opacity="1" fill-rule="nonzero"/></g><g clip-path="url(#5768ace132)"><path fill="#ffffff" d="M 111.578125 0.0078125 L 118.667969 0.0078125 L 118.667969 16.570312 L 111.578125 16.570312 Z M 111.578125 0.0078125 " fill-opacity="1" fill-rule="nonzero"/></g></svg>